<?xml version="1.0" encoding="utf-8"?>
<!-- Generator: Adobe Illustrator 28.0.0, SVG Export Plug-In . SVG Version: 6.00 Build 0)  -->
<svg version="1.1" id="Layer_2_00000051364579032462898610000007843868252713048211_"
	 xmlns="http://www.w3.org/2000/svg" xmlns:xlink="http://www.w3.org/1999/xlink" x="0px" y="0px" viewBox="0 0 673.5 674.2"
	 style="enable-background:new 0 0 673.5 674.2;" xml:space="preserve">
<style type="text/css">
	.st0{fill:#F0F0F0;}
	.st1{fill:#F2F1F2;}
</style>
<g>
	<path class="st0" d="M376.5,568.9v6.3c0,0-36.7-2.8-90.5,2.8c0,1.6,0,2.5,0,2.5h-21c-31.7,4.2-67.8,11.4-105.1,23.3v-6.4
		C57.7,627.2,0,669.7,0,669.7s148-89.5,364.5-89.5c171.5,0,309,94,309,94S566.6,573.5,376.5,568.9z"/>
	<path class="st0" d="M236.2,532.3c0.3-9.8,5.1-22.7,11-31.9c0.4-0.6,0.4,10.8,0.4,10.8l1.9-0.1c0,0-0.1-12.4,0-13.8
		c1.5-1.9,4.4-4.9,5.9-6.1c0.2-0.2,0.1,19.9,0.1,19.9l1.8,0c0,0-0.1-21,0.1-21.1c1.1-0.6,1.8-0.8,2.9-0.8c1.2,0,3.1,0.6,4.5,1.4
		c0.4,0.2-0.2,20.6-0.2,20.6l1.9,0c0,0-0.1-19,0.3-18.7c1.3,1.2,3.2,2.8,4.5,4.4c0.3,0.3,0,14.3,0,14.3h1.9c0,0-0.1-11.8,0.2-11.4
		c6.5,9.4,12.7,23.3,12.3,33.2c-0.4,11.4-0.2,29.6,0,39.9c24.4-2.5,50.1-4,77.1-4c4.5,0,9,0.1,13.5,0.2v-91.4c0,0,12-0.2,19.2-6
		c-3-2-23,6.5-40.2-85.5c-16.2,86.8-34.2,84.5-39,86.5c5.2,3.8,18.2,4.5,18.2,4.5v53.2h-9.5v-15.8h-16v15.5h-10.8V329.7h9l4.2-5.5
		c0,0-100-0.5-99.8,0s4.5,4.8,4.5,4.8l73.8,2.2l-65.2,3.8v195h-9.8v-15.5H203v16h-9.2v-53.2c0,0,14.2-1,19.2-6.2
		c-16.8-0.8-34-47.2-35.5-82.5c-7.8,29.5-17.5,85-37.5,83.2c4,2.8,10.5,4.5,20,4.5v121.1c23.1-6.8,48.5-12.8,76-17.7
		C236,574.6,235.7,547.4,236.2,532.3L236.2,532.3z M362.9,512.3h-14.8l0.2-18.6c0,0,1.1-8.6,7.5-8.6c6.8,0,7,9.1,7,9.1V512.3z
		 M329.6,470.7c10-3.4,26.4-67.9,26.4-67.9s7,50.4,27.2,68C366.8,471.6,347.3,471.6,329.6,470.7L329.6,470.7z M278.7,405.6
		c0,0,1.1-8.6,7.5-8.6c6.8,0,7,9.1,7,9.1v18.1h-14.8L278.7,405.6z M153.4,470.9c8.4-3.4,23.8-65.6,23.8-65.6s5.8,47.4,24.1,65.4
		C184.6,472.1,174.1,471.3,153.4,470.9L153.4,470.9z M183.1,512.3h-14.8l0.2-18.6c0,0,1.1-8.6,7.5-8.6c6.8,0,7,9.1,7,9.1V512.3z"/>
	<path class="st0" d="M265.1,580.4h-29c0,0,0-0.3,0-0.8c-27.5,4.8-52.9,10.9-76,17.7v6.4C197.3,591.8,233.4,584.7,265.1,580.4
		L265.1,580.4z"/>
	<path class="st0" d="M285.9,572.7c0,2.2,0.1,3.9,0.1,5.3c53.9-5.5,90.5-2.8,90.5-2.8v-6.3c-4.5-0.1-9-0.2-13.5-0.2
		C336,568.7,310.3,570.1,285.9,572.7z"/>
	<polygon class="st0" points="207.5,321.4 317.5,321.4 317.5,301.7 207.2,301.7 	"/>
	<path class="st0" d="M225.1,242.2l-0.6,53.2h9v-32.3c0,0,1.3-9.1,7.4-9.1c6.7,0,7.6,8.9,7.6,8.9v32.5l50.1,4.2v-56.4
		c0,0,21.6-0.5,30.5-9.4c-23.6-3.4-51.9-32.1-68.2-148.9c-22.4,115.8-36.9,146.5-64.8,150.4C197.5,241.3,225.1,242.2,225.1,242.2
		L225.1,242.2z M260.7,115.4c17.5,101,47.2,117.8,47.2,117.8h-89.5C218.5,233.2,240.5,219.7,260.7,115.4z"/>
	<path class="st0" d="M260.8,115.4c-20.2,104.2-42.2,117.7-42.2,117.7H308C308,233.2,278.2,216.4,260.8,115.4z"/>
	<path class="st0" d="M176.1,485.1c-6.4,0-7.5,8.6-7.5,8.6l-0.2,18.6h14.8v-18.1C183.1,494.2,182.9,485.1,176.1,485.1z"/>
	<path class="st0" d="M355.9,485.1c-6.4,0-7.5,8.6-7.5,8.6l-0.2,18.6h14.8v-18.1C362.9,494.2,362.6,485.1,355.9,485.1z"/>
	<path class="st0" d="M286,580.4c0,0,0-0.9,0-2.5c-6.7,0.7-13.7,1.5-20.9,2.5H286z"/>
	<path class="st0" d="M236,579.6c0,0.5,0,0.8,0,0.8h29c7.2-1,14.2-1.8,20.9-2.5c0-1.3-0.1-3.1-0.1-5.3
		C268.6,574.5,251.9,576.8,236,579.6L236,579.6z"/>
</g>
<path class="st1" d="M375.7,293l13.3,0.9l-13.3,0.9c-3.8,0.2-6.8,3.2-7,7l-0.9,13.3l-0.9-13.3c-0.2-3.8-3.2-6.8-7-7l-13.3-0.9
	l13.3-0.9c3.8-0.2,6.8-3.2,7-7l0.9-13.3l0.9,13.3C369,289.7,371.9,292.7,375.7,293z"/>
<path class="st1" d="M442.7,361.9l39.6,2.6l-39.6,2.6c-11.2,0.7-20.2,9.7-20.9,20.9l-2.6,39.6l-2.6-39.6
	c-0.7-11.2-9.7-20.2-20.9-20.9l-39.6-2.6l39.6-2.6c11.2-0.7,20.2-9.7,20.9-20.9l2.6-39.6l2.6,39.6
	C422.5,352.2,431.4,361.1,442.7,361.9z"/>
<path class="st1" d="M432.1,176.7l21.9,1.4l-21.9,1.4c-6.2,0.4-11.1,5.3-11.5,11.5l-1.4,21.9l-1.4-21.9c-0.4-6.2-5.3-11.1-11.5-11.5
	l-21.9-1.4l21.9-1.4c6.2-0.4,11.1-5.3,11.5-11.5l1.4-21.9l1.4,21.9C421,171.4,425.9,176.3,432.1,176.7z"/>
<path class="st1" d="M341,43.3l28.4,1.9L341,47c-8,0.5-14.4,6.9-14.9,14.9l-1.9,28.3L322.3,62c-0.5-8-6.9-14.4-14.9-14.9L279,45.2
	l28.4-1.9c8-0.5,14.4-6.9,14.9-14.9L324.1,0l1.9,28.4C326.5,36.4,332.9,42.8,341,43.3z"/>
<path class="st1" d="M192.6,145.9l54.1,3.6l-54.1,3.6c-15.3,1-27.5,13.2-28.5,28.5l-3.6,54.1l-3.6-54.1c-1-15.3-13.2-27.5-28.5-28.5
	l-54.1-3.6l54.1-3.6c15.3-1,27.5-13.2,28.5-28.5l3.6-54.1l3.6,54.1C165.1,132.7,177.2,144.9,192.6,145.9z"/>
<path class="st1" d="M123.6,334.4l22.1,1.5l-22.1,1.5c-6.2,0.4-11.2,5.4-11.6,11.6l-1.5,22.1l-1.5-22.1c-0.4-6.2-5.4-11.2-11.6-11.6
	l-22.1-1.5l22.1-1.5c6.2-0.4,11.2-5.4,11.6-11.6l1.5-22.1l1.5,22.1C112.3,329,117.3,334,123.6,334.4z"/>
</svg>
